<svg xmlns="http://www.w3.org/2000/svg" viewBox="0 0 24 24" width="24" height="24" preserveAspectRatio="xMidYMid meet" style="width: 100%; height: 100%; transform: translate3d(0px, 0px, 0px);"><defs><clipPath id="__lottie_element_2"><rect width="24" height="24" x="0" y="0"></rect></clipPath><filter id="__lottie_element_4" filterUnits="objectBoundingBox" x="0%" y="0%" width="100%" height="100%"><feComponentTransfer in="SourceGraphic"><feFuncA type="table" tableValues="1.0 0.0"></feFuncA></feComponentTransfer></filter><mask id="__lottie_element_3" mask-type="alpha"><g filter="url(#__lottie_element_4)"><rect width="24" height="24" x="0" y="0" fill="#ffffff" opacity="0"></rect><g transform="matrix(1,0,0,1,12.14799976348877,8.621000289916992)" opacity="1" style="display: block;"><g opacity="1" transform="matrix(1,0,0,1,0,0)"><path fill="rgb(0,0,0)" fill-opacity="1" d=" M-7.479000091552734,-3.5250000953674316 C-7.479000091552734,-3.5250000953674316 -4.53000020980835,3.5250000953674316 -4.53000020980835,3.5250000953674316 C-4.53000020980835,3.5250000953674316 3.811000108718872,3.378999948501587 3.811000108718872,3.378999948501587 C3.811000108718872,3.378999948501587 7.479000091552734,-3.5250000953674316 7.479000091552734,-3.5250000953674316 C7.479000091552734,-3.5250000953674316 -7.479000091552734,-3.5250000953674316 -7.479000091552734,-3.5250000953674316z"></path></g></g></g></mask><filter id="__lottie_element_11" filterUnits="objectBoundingBox" x="0%" y="0%" width="100%" height="100%"><feComponentTransfer in="SourceGraphic"><feFuncA type="table" tableValues="1.0 0.0"></feFuncA></feComponentTransfer></filter><mask id="__lottie_element_10" mask-type="alpha"><g filter="url(#__lottie_element_11)"><rect width="24" height="24" x="0" y="0" fill="#ffffff" opacity="0"></rect><g transform="matrix(1,0,0,1,12.904000282287598,2.8450000286102295)" opacity="1" style="display: block;"><g opacity="1" transform="matrix(1,0,0,1,0,0)"><path fill="rgb(0,0,0)" fill-opacity="1" d=" M-1.7139999866485596,-2.6549999713897705 C-1.7139999866485596,-2.6549999713897705 -2.9040000438690186,-1.8450000286102295 -2.9040000438690186,-1.8450000286102295 C-2.9040000438690186,-1.8450000286102295 -3.5959999561309814,2.6549999713897705 -3.5959999561309814,2.6549999713897705 C-3.5959999561309814,2.6549999713897705 3.5959999561309814,2.6549999713897705 3.5959999561309814,2.6549999713897705 C3.5959999561309814,2.6549999713897705 -1.7139999866485596,-2.6549999713897705 -1.7139999866485596,-2.6549999713897705z"></path></g></g></g></mask><clipPath id="__lottie_element_15"><path fill="#ffffff" clip-rule="nonzero" d=" M-5.531000137329102,-3.187999963760376 C-5.531000137329102,-3.187999963760376 -5.531000137329102,2.3440001010894775 -5.531000137329102,2.3440001010894775 C-5.531000137329102,2.3440001010894775 4.656000137329102,2.3440001010894775 4.656000137329102,2.3440001010894775 C4.656000137329102,2.3440001010894775 4.656000137329102,-3.187999963760376 4.656000137329102,-3.187999963760376 C4.656000137329102,-3.187999963760376 -5.531000137329102,-3.187999963760376 -5.531000137329102,-3.187999963760376" fill-opacity="1"></path></clipPath></defs><g clip-path="url(#__lottie_element_2)"><g transform="matrix(1,0,0,1,0,0)" opacity="1" style="display: block;"><g opacity="1" transform="matrix(1,0,0,1,13.118000030517578,8.5)"><path fill="rgb(0,0,0)" fill-opacity="1" d=" M2.4030001163482666,4.5 C2.4030001163482666,4.5 -5.769999980926514,4.5 -5.769999980926514,4.5 C-5.769999980926514,4.5 -5.769999980926514,2.5 -5.769999980926514,2.5 C-5.769999980926514,2.5 2.4030001163482666,2.5 2.4030001163482666,2.5 C2.4030001163482666,2.5 5.181000232696533,-2.5 5.181000232696533,-2.5 C5.181000232696533,-2.5 -7.88100004196167,-2.5 -7.88100004196167,-2.5 C-7.88100004196167,-2.5 -7.88100004196167,-4.5 -7.88100004196167,-4.5 C-7.88100004196167,-4.5 6.88100004196167,-4.5 6.88100004196167,-4.5 C7.235000133514404,-4.5 7.563000202178955,-4.311999797821045 7.743000030517578,-4.006999969482422 C7.922999858856201,-3.7009999752044678 7.927999973297119,-3.3239998817443848 7.755000114440918,-3.0139999389648438 C7.755000114440918,-3.0139999389648438 4.1519999504089355,3.4709999561309814 4.1519999504089355,3.4709999561309814 C3.799999952316284,4.105000019073486 3.130000114440918,4.5 2.4030001163482666,4.5z"></path></g><g opacity="1" transform="matrix(1,0,0,1,10.001999855041504,11.998000144958496)"><path fill="rgb(0,0,0)" fill-opacity="1" d=" M8.998000144958496,5.000999927520752 C8.998000144958496,5.000999927520752 -3.059999942779541,5.000999927520752 -3.059999942779541,5.000999927520752 C-3.813999891281128,5.000999927520752 -4.510000228881836,4.591000080108643 -4.875999927520752,3.931999921798706 C-5.242000102996826,3.2730000019073486 -5.2210001945495605,2.4660000801086426 -4.821000099182129,1.8259999752044678 C-4.821000099182129,1.8259999752044678 -3.624000072479248,-0.09000000357627869 -3.624000072479248,-0.09000000357627869 C-3.624000072479248,-0.09000000357627869 -6.918000221252441,-7.994999885559082 -6.918000221252441,-7.994999885559082 C-6.918000221252441,-7.994999885559082 -8.98900032043457,-7.986000061035156 -8.98900032043457,-7.986000061035156 C-8.98900032043457,-7.986000061035156 -8.998000144958496,-9.986000061035156 -8.998000144958496,-9.986000061035156 C-8.998000144958496,-9.986000061035156 -5.586999893188477,-10.00100040435791 -5.586999893188477,-10.00100040435791 C-5.586999893188477,-10.00100040435791 -1.38100004196167,0.09399999678134918 -1.38100004196167,0.09399999678134918 C-1.38100004196167,0.09399999678134918 -3.125,2.884999990463257 -3.125,2.884999990463257 C-3.125,2.884999990463257 -3.059999942779541,3.000999927520752 -3.059999942779541,3.000999927520752 C-3.059999942779541,3.000999927520752 8.998000144958496,3.000999927520752 8.998000144958496,3.000999927520752 C8.998000144958496,3.000999927520752 8.998000144958496,5.000999927520752 8.998000144958496,5.000999927520752z M6.998000144958496,6.000999927520752 C5.89300012588501,6.000999927520752 4.998000144958496,6.895999908447266 4.998000144958496,8.00100040435791 C4.998000144958496,9.105999946594238 5.89300012588501,10.00100040435791 6.998000144958496,10.00100040435791 C8.102999687194824,10.00100040435791 8.998000144958496,9.105999946594238 8.998000144958496,8.00100040435791 C8.998000144958496,6.895999908447266 8.102999687194824,6.000999927520752 6.998000144958496,6.000999927520752z M-3.002000093460083,6.000999927520752 C-4.10699987411499,6.000999927520752 -5.001999855041504,6.895999908447266 -5.001999855041504,8.00100040435791 C-5.001999855041504,9.105999946594238 -4.10699987411499,10.00100040435791 -3.002000093460083,10.00100040435791 C-1.8969999551773071,10.00100040435791 -1.0019999742507935,9.105999946594238 -1.0019999742507935,8.00100040435791 C-1.0019999742507935,6.895999908447266 -1.8969999551773071,6.000999927520752 -3.002000093460083,6.000999927520752z"></path></g></g><g mask="url(#__lottie_element_10)" style="display: block;"><g clip-path="url(#__lottie_element_15)" transform="matrix(1,0,0,1,15,3.25)" opacity="1"><g opacity="1" transform="matrix(0.99873286485672,0.050325993448495865,-0.050325993448495865,0.99873286485672,0.11811017990112305,-0.22283101081848145)"><path fill="rgb(0,0,0)" fill-opacity="1" d=" M-2.825000047683716,2.25 C-2.825000047683716,2.25 4.5,2.25 4.5,2.25 C4.5,2.25 0,-2.25 0,-2.25 C0,-2.25 -4.5,2.25 -4.5,2.25 C-4.5,2.25 -2.825000047683716,2.25 -2.825000047683716,2.25z"></path></g></g></g><g mask="url(#__lottie_element_3)" style="display: block;"><g transform="matrix(1,0,0,1,10,4.75)" opacity="1"><g opacity="1" transform="matrix(1,0,0,1,0,0)"><path fill="rgb(0,0,0)" fill-opacity="1" d=" M-3.9609999656677246,0.18000000715255737 C-3.9609999656677246,0.18000000715255737 0,-3.75 0,-3.75 C0,-3.75 3.75,0 3.75,0 C3.75,0 0,3.75 0,3.75 C0,3.75 -3.9609999656677246,0.18000000715255737 -3.9609999656677246,0.18000000715255737z"></path></g></g></g></g></svg>