<svg width="28" height="28" viewBox="0 0 28 28" fill="none" xmlns="http://www.w3.org/2000/svg">
<path d="M27.5831 5.75983C26.6089 6.1915 25.5624 6.48316 24.4623 6.615C25.5846 5.943 26.4456 4.87666 26.8516 3.60733C25.8016 4.23033 24.6384 4.683 23.4006 4.92566C22.4089 3.871 20.9973 3.21066 19.4339 3.21066C16.4333 3.21066 13.9996 5.64433 13.9996 8.64733C13.9996 9.072 14.0486 9.485 14.1396 9.884C9.62111 9.6565 5.61827 7.49233 2.93727 4.20466C2.47061 5.00966 2.20227 5.943 2.20227 6.937C2.20227 8.82233 3.16244 10.4872 4.61961 11.4613C3.72827 11.4322 2.89061 11.1883 2.15794 10.7812V10.8512C2.15794 13.4843 4.03044 15.6812 6.51777 16.1805C6.06044 16.3042 5.58094 16.3695 5.08627 16.3695C4.73627 16.3695 4.39444 16.3368 4.06311 16.2738C4.75494 18.4322 6.76161 20.0048 9.14044 20.0468C7.27961 21.5052 4.93577 22.3743 2.39011 22.3743C1.95144 22.3743 1.51861 22.3487 1.09277 22.2985C3.49844 23.842 6.35444 24.7403 9.42277 24.7403C19.4211 24.7403 24.8869 16.4593 24.8869 9.27733C24.8869 9.044 24.8811 8.80833 24.8706 8.575C25.9323 7.80733 26.8539 6.85183 27.5808 5.76333L27.5831 5.75983Z" fill="#1D9BF0"/>
</svg>
